<?xml version="1.0" encoding="utf-8"?>
<!-- Generator: Adobe Illustrator 21.0.0, SVG Export Plug-In . SVG Version: 6.00 Build 0)  -->
<svg version="1.1" id="Capa_1" xmlns="http://www.w3.org/2000/svg" xmlns:xlink="http://www.w3.org/1999/xlink" x="0px" y="0px"
	 viewBox="0 0 578.1 578.1" style="enable-background:new 0 0 578.1 578.1;" xml:space="preserve">
<style type="text/css">
	.st0{fill:none;stroke:#FFFFFF;stroke-width:40;stroke-miterlimit:10;}
</style>
<g>
	<g>
		<path class="st0" d="M554.8,437.7c1.1,8.4-1.5,15.7-7.7,21.9L474.1,532c-3.3,3.7-7.6,6.8-12.9,9.3c-5.3,2.6-10.5,4.2-15.6,4.9
			c-0.4,0-1.5,0.1-3.3,0.3c-1.8,0.2-4.2,0.3-7.1,0.3c-6.9,0-18.2-1.2-33.7-3.6c-15.5-2.4-34.5-8.2-57-17.5
			c-22.5-9.3-48-23.3-76.5-42c-28.5-18.6-58.9-44.2-91-76.8c-25.6-25.2-46.8-49.4-63.6-72.4c-16.8-23-30.3-44.3-40.6-63.9
			c-10.2-19.6-17.9-37.3-23-53.2s-8.6-29.6-10.4-41.1c-1.8-11.5-2.6-20.6-2.2-27.1c0.4-6.6,0.5-10.2,0.5-11
			c0.7-5.1,2.4-10.3,4.9-15.6c2.6-5.3,5.7-9.6,9.3-12.9l72.9-72.9c5.1-5.1,11-7.7,17.5-7.7c4.8,0,9,1.4,12.6,4.1s6.8,6.1,9.3,10.1
			L223,154.7c3.3,5.8,4.2,12.2,2.7,19.2c-1.5,6.9-4.6,12.8-9.3,17.5l-26.9,26.9c-0.7,0.7-1.4,1.9-1.9,3.6s-0.8,3-0.8,4.1
			c1.5,7.7,4.8,16.5,9.9,26.3c4.4,8.8,11.2,19.5,20.3,32.1c9.1,12.6,22.1,27.1,38.9,43.6c16.5,16.8,31.1,29.9,43.9,39.2
			c12.8,9.3,23.5,16.2,32.1,20.6c8.6,4.4,15.2,7,19.7,7.9l6.9,1.4c0.7,0,1.9-0.3,3.6-0.8c1.6-0.5,2.8-1.2,3.6-1.9l31.3-31.8
			c6.6-5.8,14.3-8.8,23-8.8c6.2,0,11.1,1.1,14.8,3.3h0.5L541,419.6C548.7,424.4,553.3,430.4,554.8,437.7z"/>
	</g>
</g>
</svg>
