<?xml version="1.0" encoding="iso-8859-1"?>
<!-- Generator: Adobe Illustrator 19.0.0, SVG Export Plug-In . SVG Version: 6.00 Build 0)  -->
<svg version="1.1" id="Capa_1" xmlns="http://www.w3.org/2000/svg" xmlns:xlink="http://www.w3.org/1999/xlink" x="0px" y="0px"
	 viewBox="0 0 60 60" style="enable-background:new 0 0 60 60;" xml:space="preserve">
<g>
	<g>
		<path d="M57,0H3C1.3,0,0,1.3,0,3v37v9c0,0.6,0.4,1,1,1h20v10h2V50h14v10h2V50h20c0.6,0,1-0.4,1-1v-9V3C60,1.3,58.7,0,57,0z M2,3
			c0-0.6,0.4-1,1-1h54c0.6,0,1,0.4,1,1v36H31V26c0-3.9-3.1-7-7-7H14c-3.9,0-7,3.1-7,7v13H2V3z M24,29v10H14V29h-2v10H9V26
			c0-2.8,2.2-5,5-5h1.3l2.8,7.4c0.1,0.3,0.5,0.6,0.9,0.6s0.8-0.3,1.1-0.6l2.8-7.4H24c2.8,0,5,2.2,5,5v13h-3V29H24z M17.5,21h3.2
			l-1.6,4.2L17.5,21z M58,48H38H22H2v-7h56V48z"/>
		<rect x="18" y="31" width="2" height="2"/>
		<rect x="18" y="35" width="2" height="2"/>
		<path d="M18,18h2c2.8,0,5-2.2,5-5v-3c0-2.8-2.2-5-5-5h-2c-2.8,0-5,2.2-5,5v3C13,15.8,15.2,18,18,18z M15,10c0-1.7,1.3-3,3-3h2
			c1.7,0,3,1.3,3,3v3c0,1.7-1.3,3-3,3h-2c-1.7,0-3-1.3-3-3V10z"/>
		<path d="M35,20h18c0.6,0,1-0.4,1-1V7c0-0.6-0.4-1-1-1H35c-0.6,0-1,0.4-1,1v12C34,19.6,34.4,20,35,20z M36,8h16v10H36V8z"/>
		<path d="M35,37h18c0.6,0,1-0.4,1-1V24c0-0.6-0.4-1-1-1H35c-0.6,0-1,0.4-1,1v12C34,36.6,34.4,37,35,37z M36,25h16v10H36V25z"/>
		<rect x="43" y="10" width="2" height="2"/>
		<rect x="47" y="10" width="2" height="2"/>
		<rect x="39" y="10" width="2" height="2"/>
		<rect x="43" y="14" width="2" height="2"/>
		<rect x="47" y="14" width="2" height="2"/>
		<rect x="39" y="14" width="2" height="2"/>
		<rect x="43" y="27" width="2" height="2"/>
		<rect x="47" y="27" width="2" height="2"/>
		<rect x="39" y="27" width="2" height="2"/>
		<rect x="43" y="31" width="2" height="2"/>
		<rect x="47" y="31" width="2" height="2"/>
		<rect x="39" y="31" width="2" height="2"/>
	</g>
</g>
<g>
</g>
<g>
</g>
<g>
</g>
<g>
</g>
<g>
</g>
<g>
</g>
<g>
</g>
<g>
</g>
<g>
</g>
<g>
</g>
<g>
</g>
<g>
</g>
<g>
</g>
<g>
</g>
<g>
</g>
</svg>
